<?xml version="1.0" standalone="no"?>
<!DOCTYPE svg PUBLIC "-//W3C//DTD SVG 20010904//EN"
 "http://www.w3.org/TR/2001/REC-SVG-20010904/DTD/svg10.dtd">
<svg version="1.0" xmlns="http://www.w3.org/2000/svg"
 width="1200.000000pt" height="470.000000pt" viewBox="0 0 1200.000000 470.000000"
 preserveAspectRatio="xMidYMid meet">

<g transform="translate(0.000000,470.000000) scale(0.100000,-0.100000)" stroke="none">
<path d="M895 4549 c-37 -11 -58 -28 -73 -56 -27 -50 -3 -107 74 -179 24 -22
44 -49 44 -59 0 -18 -49 -70 -138 -143 -57 -47 -62 -61 -32 -99 39 -50 15
-148 -44 -184 -16 -10 -52 -23 -79 -29 -67 -14 -104 -37 -123 -78 -19 -41 -12
-79 20 -93 19 -9 36 -5 94 20 39 17 78 31 88 31 36 0 -4 -22 -107 -57 -114
-39 -166 -70 -223 -133 -91 -101 -104 -202 -43 -335 50 -111 87 -229 137 -435
89 -371 129 -494 244 -756 124 -280 309 -584 523 -859 276 -356 708 -664 1133
-810 270 -93 478 -131 880 -165 135 -11 263 -21 285 -23 77 -7 427 12 588 32
89 11 193 22 231 26 39 3 126 24 195 47 136 45 221 53 278 29 29 -12 35 -11
60 6 47 32 79 42 198 63 63 11 130 28 150 37 29 14 35 23 41 60 8 54 -6 90
-42 103 -14 6 -91 10 -171 10 -131 0 -149 2 -184 22 l-39 22 -22 -21 c-54 -49
-88 -53 -193 -23 -53 15 -95 20 -172 18 -81 -2 -106 1 -118 13 -14 14 -12 20
17 58 78 103 98 135 98 157 0 46 -77 59 -145 23 -22 -11 -88 -68 -147 -126
l-106 -106 -124 27 c-335 75 -635 207 -893 394 -142 103 -200 157 -331 309
-207 243 -331 416 -386 542 -72 165 -138 401 -173 616 -42 257 -93 947 -76
1013 23 82 88 92 248 38 55 -19 118 -37 139 -40 52 -8 98 5 102 30 4 30 -71
109 -141 148 -59 32 -288 121 -373 145 -22 6 -68 29 -102 51 -82 52 -137 80
-160 80 -23 0 -37 16 -46 52 -10 41 -43 57 -176 84 -179 36 -202 50 -193 127
9 71 -2 77 -148 77 -104 0 -119 2 -144 21 -24 20 -26 26 -21 68 19 140 19 136
-9 169 -38 45 -104 61 -170 41z m84 -20 c36 -13 69 -65 52 -82 -5 -5 -40 -9
-76 -8 -80 2 -87 -2 -74 -36 8 -23 8 -24 -6 -13 -35 29 -4 119 49 140 11 5 21
9 22 9 1 1 15 -4 33 -10z m46 -329 c-3 -5 -12 -10 -18 -10 -7 0 -6 4 3 10 19
12 23 12 15 0z m205 -10 c11 -7 9 -11 -13 -19 -33 -13 -87 -14 -87 -3 0 28 67
43 100 22z m32 -146 c75 -25 128 -56 128 -75 0 -6 -7 -6 -19 1 -29 15 -29 14
-28 -37 2 -46 1 -48 -28 -51 -56 -5 -145 95 -145 163 0 14 3 25 7 25 5 0 43
-12 85 -26z m-94 -100 c41 -28 26 -36 -56 -29 -60 6 -86 4 -116 -9 -44 -18
-76 -22 -60 -6 15 15 145 58 179 59 17 1 41 -6 53 -15z m378 -58 c3 -8 1 -23
-5 -34 -8 -15 -4 -27 16 -55 35 -49 21 -59 -22 -17 l-35 34 6 -30 c3 -18 0
-45 -10 -67 -19 -47 -57 -51 -92 -9 -13 15 -36 42 -52 61 -35 41 -57 35 -49
-14 l5 -33 -31 18 c-68 40 -211 32 -360 -19 -31 -11 -59 -16 -62 -11 -7 11 81
39 315 99 107 28 227 60 265 70 85 24 104 25 111 7z m577 -152 c43 -8 54 -30
42 -90 -8 -47 -77 -116 -136 -137 -154 -54 -381 -99 -587 -116 -113 -9 -115
-10 -260 -79 -213 -102 -258 -114 -246 -66 l7 27 -68 -8 c-87 -9 -95 -12 -95
-39 0 -55 -64 -62 -136 -13 -73 49 -84 103 -26 133 29 14 17 24 -28 24 -76 0
-115 -69 -108 -189 4 -73 -7 -74 -44 -2 -38 73 -37 120 4 166 37 43 83 68 165
89 91 24 100 22 95 -17 -3 -25 2 -39 22 -58 33 -33 128 -62 162 -49 32 12 31
20 -8 53 -31 25 -32 28 -15 41 23 18 22 19 -18 40 -19 11 -35 25 -35 32 0 15
2 15 142 44 53 11 197 49 320 85 351 104 691 155 851 129z m382 -170 c17 -11
25 -25 25 -45 0 -16 -4 -29 -10 -29 -5 0 -10 4 -10 10 0 5 -20 23 -45 40 -25
17 -45 36 -45 42 0 14 53 3 85 -18z m-484 -170 c22 -23 24 -36 27 -127 2 -60
-2 -129 -10 -168 -13 -62 -13 -66 7 -81 19 -15 20 -27 20 -169 0 -118 3 -157
14 -168 14 -16 11 -137 -5 -175 -5 -13 -4 -17 3 -13 19 12 43 -4 43 -27 -1
-30 -25 -72 -34 -57 -4 6 -11 11 -16 11 -12 0 -30 -66 -30 -105 l1 -30 14 30
c44 94 67 84 90 -37 10 -51 33 -143 51 -205 18 -61 38 -133 44 -159 6 -27 19
-57 28 -67 16 -18 15 -20 -9 -40 -24 -20 -49 -56 -49 -71 0 -3 7 -6 16 -6 42
0 105 -64 124 -126 l8 -29 1 32 c1 46 16 48 41 8 12 -20 33 -43 46 -51 13 -9
51 -61 85 -116 62 -101 134 -198 172 -231 39 -34 67 -80 57 -92 -13 -16 47
-102 112 -159 63 -56 240 -146 335 -172 60 -15 76 -25 140 -86 95 -91 159
-121 252 -116 58 2 67 1 58 -11 -18 -21 22 -46 115 -70 187 -49 201 -60 115
-87 -53 -17 -55 -16 -146 10 -51 14 -100 26 -110 26 -10 0 -72 23 -137 51
-132 57 -237 83 -292 73 -20 -3 -61 -20 -90 -36 -62 -35 -77 -30 -37 12 46 48
21 45 -34 -4 -29 -25 -60 -46 -71 -46 -11 0 -31 18 -50 45 -37 54 -62 69 -104
61 -32 -6 -88 14 -102 35 -3 6 2 19 12 30 16 18 16 19 -4 19 -27 0 -27 5 -1
42 12 16 20 31 18 32 -2 2 -51 8 -109 15 -157 16 -220 40 -249 94 -24 44 -11
56 51 45 77 -13 88 -18 61 -29 -78 -30 61 -94 162 -75 l36 7 -72 77 c-135 146
-215 196 -543 341 -168 74 -253 123 -225 129 22 4 119 -33 163 -63 42 -28 107
-48 130 -39 27 10 30 50 6 98 -25 52 -81 106 -111 106 -36 0 -92 30 -143 77
-63 59 -65 63 -26 63 40 0 87 24 95 49 10 32 -21 89 -86 157 -34 35 -64 63
-65 61 -2 -2 10 -35 26 -73 34 -80 36 -97 13 -92 -9 2 -25 26 -37 59 -24 65
-39 85 -77 105 -43 22 -56 18 -63 -21 -9 -46 -24 -53 -37 -17 -9 28 -13 29
-54 25 -41 -5 -44 -4 -61 28 -9 19 -16 49 -16 67 2 54 -21 95 -88 152 -34 30
-66 63 -72 73 -9 17 -8 17 19 3 47 -24 95 -29 118 -12 17 12 18 19 9 43 -15
40 -76 121 -97 128 -13 5 -30 -5 -59 -34 -22 -23 -48 -41 -58 -41 -21 0 -32
34 -25 77 2 15 7 48 10 71 l6 44 -32 -23 c-31 -22 -31 -22 -25 -90 l7 -69 -40
0 c-23 0 -41 -4 -41 -9 0 -5 39 -46 87 -90 76 -71 84 -81 62 -81 -14 0 -34 -9
-44 -20 -21 -23 -48 -26 -63 -7 -6 6 -20 41 -32 77 -24 72 -68 126 -111 135
l-28 6 26 23 c26 23 26 24 10 49 -9 14 -34 38 -54 53 -21 15 -42 31 -47 36
-13 10 82 118 104 118 10 0 35 -19 55 -42 l36 -43 -25 -8 c-29 -10 -41 -37
-31 -75 10 -39 44 -82 66 -82 17 0 19 8 19 96 0 78 -4 103 -20 128 -26 44 -93
80 -132 72 -39 -8 -62 6 -82 49 -21 44 -13 75 20 75 19 0 24 5 24 25 0 38 34
62 99 69 49 6 61 11 81 38 l23 31 -37 74 c-56 113 -49 130 50 130 71 0 145 30
171 70 16 24 16 26 0 38 -14 10 -8 11 33 7 70 -6 99 3 111 37 l10 28 77 -18
c42 -11 83 -19 90 -19 23 0 12 17 -23 36 -19 10 -35 21 -35 25 0 13 181 58
235 59 17 0 48 9 70 20 50 26 57 25 86 -6z m-837 -199 c-4 -8 -10 -12 -15 -9
-11 6 -2 24 11 24 5 0 7 -7 4 -15z m-576 -37 c-5 -15 -48 -24 -48 -10 0 14 12
22 33 22 10 0 17 -5 15 -12z m456 -111 c27 -20 16 -50 -27 -71 -32 -15 -42
-16 -68 -6 -40 17 -31 36 15 32 26 -3 36 0 32 7 -4 6 -13 11 -19 11 -7 0 -30
9 -52 19 l-40 19 71 1 c43 1 77 -4 88 -12z m-229 -57 c3 -5 -4 -19 -15 -30
-16 -16 -25 -18 -40 -10 -44 23 -36 50 15 50 19 0 36 -4 40 -10z m75 -65 c0
-17 -2 -18 -24 -9 -23 9 -20 24 4 24 11 0 20 -7 20 -15z m170 5 c0 -5 -5 -10
-11 -10 -5 0 -7 5 -4 10 3 6 8 10 11 10 2 0 4 -4 4 -10z m-515 -20 c3 -5 1
-10 -4 -10 -6 0 -11 5 -11 10 0 6 2 10 4 10 3 0 8 -4 11 -10z m278 -31 c-17
-17 -37 -1 -22 17 8 10 15 12 23 4 7 -7 7 -13 -1 -21z m-25 -95 c23 -6 30 -28
12 -39 -10 -6 -65 19 -75 35 -7 11 27 13 63 4z m-180 -98 c16 -32 9 -45 -16
-30 -21 13 -30 68 -10 62 7 -3 19 -17 26 -32z m172 14 c37 -37 26 -48 -29 -29
-31 11 -41 33 -18 42 21 9 26 8 47 -13z m-20 -75 c16 -19 3 -19 -30 0 -24 13
-24 14 -4 15 12 0 27 -7 34 -15z m-80 -142 c59 -121 78 -202 46 -190 -11 4
-10 -3 5 -27 10 -18 30 -64 43 -102 13 -38 35 -92 50 -121 32 -63 33 -72 5
-47 -39 35 -79 102 -128 216 -27 62 -65 147 -85 188 -20 41 -36 83 -36 94 0
20 0 20 20 1 10 -11 33 -45 49 -75 37 -67 38 -64 6 34 -27 83 -29 96 -17 96 5
0 24 -30 42 -67z m272 -135 c-9 -9 -15 -9 -24 0 -9 9 -7 12 12 12 19 0 21 -3
12 -12z m55 -112 c-10 -8 -27 -12 -37 -9 -33 9 -22 23 18 23 33 -1 35 -2 19
-14z m243 -11 c0 -8 -4 -15 -9 -15 -13 0 -22 16 -14 24 11 11 23 6 23 -9z
m129 -128 c6 -8 17 -46 26 -86 17 -81 27 -104 53 -123 23 -16 72 -88 72 -105
0 -7 -5 -13 -12 -13 -7 0 -84 34 -173 77 -157 75 -161 77 -184 124 -41 81 -18
93 88 46 105 -46 132 -41 115 20 -6 21 -15 46 -19 56 -9 21 17 24 34 4z m-599
-96 c23 -38 50 -93 61 -122 31 -80 41 -97 130 -209 45 -58 88 -120 96 -138 7
-18 32 -49 54 -69 45 -41 68 -81 95 -167 21 -67 58 -112 100 -122 40 -9 49
-18 82 -77 37 -65 64 -90 100 -91 22 -1 28 -5 25 -21 -5 -30 85 -118 142 -140
53 -20 140 -96 133 -117 -7 -21 -31 -20 -94 3 -44 17 -77 40 -134 95 -41 40
-103 96 -138 124 -35 29 -91 87 -125 130 -72 90 -160 232 -162 260 -1 11 -5
23 -10 27 -4 5 -5 1 0 -7 24 -45 -26 26 -144 203 -72 109 -152 239 -177 290
-56 111 -97 217 -84 217 5 0 28 -31 50 -69z m380 -131 c0 -5 -4 -10 -9 -10 -6
0 -13 5 -16 10 -3 6 1 10 9 10 9 0 16 -4 16 -10z m0 -130 c11 -6 25 -20 31
-32 l12 -22 -34 22 c-47 30 -55 56 -9 32z m610 -20 c12 -23 3 -25 -35 -8 -32
14 -32 28 0 28 14 0 29 -8 35 -20z m-182 -32 c39 -12 72 -24 72 -28 0 -4 -18
-14 -40 -23 -48 -19 -50 -31 -7 -57 l32 -20 -37 0 c-21 0 -38 -4 -38 -9 0 -5
20 -22 44 -37 28 -18 42 -33 39 -44 -2 -9 11 -29 32 -49 26 -23 35 -39 33 -57
-2 -17 6 -31 27 -48 50 -40 21 -40 -52 -1 -37 21 -109 60 -159 86 -88 47 -131
79 -105 79 7 0 26 -7 42 -16 58 -29 52 -8 -10 41 -55 44 -61 50 -42 55 21 5
20 7 -13 39 -43 41 -45 54 -10 45 21 -5 25 -3 24 12 -4 31 -1 34 25 24 23 -9
25 -8 15 9 -5 11 -10 23 -10 26 0 8 43 0 138 -27z m-294 -49 c15 -12 25 -23
22 -26 -5 -6 -63 24 -71 37 -11 18 22 11 49 -11z m-124 -74 c13 -14 21 -27 18
-30 -2 -3 -17 9 -33 25 -16 17 -24 30 -19 30 6 0 21 -11 34 -25z m780 -195 c0
-5 -4 -10 -10 -10 -5 0 -10 5 -10 10 0 6 5 10 10 10 6 0 10 -4 10 -10z m94
-56 c4 -10 1 -14 -6 -12 -15 5 -23 28 -10 28 5 0 13 -7 16 -16z m-399 -57 c7
-6 -2 -7 -25 -3 -19 3 -39 11 -44 16 -7 7 1 8 24 4 19 -4 40 -11 45 -17z m254
-22 c30 -14 52 -28 49 -31 -10 -10 -97 18 -114 37 -24 27 -2 25 65 -6z m-299
-5 c0 -5 -4 -10 -10 -10 -5 0 -10 5 -10 10 0 6 5 10 10 10 6 0 10 -4 10 -10z
m150 -11 c12 -7 11 -8 -6 -9 -11 0 -29 7 -40 16 -18 14 -18 15 6 8 14 -3 32
-10 40 -15z m42 -63 c35 -13 74 -27 88 -31 28 -8 50 -24 50 -35 0 -17 -75 -32
-134 -27 -53 4 -93 16 -155 46 -25 12 -54 58 -46 71 12 19 123 5 197 -24z
m263 -39 c28 -14 62 -30 78 -36 33 -13 36 -31 4 -31 -46 0 -117 28 -161 65
-25 21 -46 41 -46 46 0 10 61 -11 125 -44z m123 24 c20 -10 54 -21 74 -25 51
-9 58 -26 11 -26 -47 0 -96 13 -165 45 l-53 24 48 0 c28 1 63 -7 85 -18z m672
-87 c0 -8 -7 -14 -15 -14 -15 0 -21 21 -9 33 10 9 24 -2 24 -19z m-690 -56
c43 -21 44 -22 18 -26 -27 -3 -81 19 -93 38 -10 17 28 11 75 -12z m-385 2 c8
-13 -5 -13 -25 0 -13 8 -13 10 2 10 9 0 20 -4 23 -10z m200 0 c3 -5 -1 -10
-10 -10 -9 0 -13 5 -10 10 3 6 8 10 10 10 2 0 7 -4 10 -10z m970 -30 c3 -5 -1
-10 -9 -10 -9 0 -16 5 -16 10 0 6 4 10 9 10 6 0 13 -4 16 -10z m-789 -89 c74
-35 94 -58 43 -47 -44 8 -122 48 -127 64 -6 19 18 14 84 -17z m99 9 c3 -5 -3
-10 -14 -10 -11 0 -23 5 -26 10 -3 6 3 10 14 10 11 0 23 -4 26 -10z m-226 -19
c9 -6 10 -11 2 -15 -15 -10 -53 3 -46 15 8 11 26 11 44 0z m2371 -103 c0 -16
-3 -19 -11 -11 -6 6 -8 16 -5 22 11 17 16 13 16 -11z m-2402 -34 c-9 -10 -24
-14 -33 -10 -23 9 -9 26 23 26 24 0 25 -1 10 -16z m239 4 c-4 -14 -36 -12 -51
3 -6 5 3 9 23 9 22 0 31 -4 28 -12z m128 -28 c3 -5 4 -14 0 -19 -7 -12 -65 7
-65 20 0 12 57 11 65 -1z m281 -35 c-22 -17 -52 -20 -60 -6 -9 14 5 21 43 21
34 -1 35 -2 17 -15z m1554 -10 c0 -8 -9 -15 -20 -15 -22 0 -27 15 -7 23 21 9
27 7 27 -8z m-1617 -52 c-13 -2 -33 -2 -45 0 -13 2 -3 4 22 4 25 0 35 -2 23
-4z m-523 -13 c0 -5 -4 -10 -10 -10 -5 0 -10 5 -10 10 0 6 5 10 10 10 6 0 10
-4 10 -10z m80 -78 c75 -37 245 -111 380 -165 236 -92 251 -97 390 -116 208
-29 286 -33 365 -22 56 8 79 7 110 -4 29 -10 90 -14 216 -15 111 0 189 -4 210
-12 l34 -12 -40 -8 c-81 -16 -371 -21 -502 -9 -194 19 -648 87 -733 111 -102
29 -222 73 -365 135 -120 53 -281 143 -271 152 3 3 42 -15 88 -39 101 -55 255
-121 269 -116 5 2 -54 36 -133 75 -79 40 -154 82 -168 93 -53 42 15 20 150
-48z m74 50 c9 -14 -10 -33 -27 -26 -18 6 -21 16 -10 27 9 9 31 9 37 -1z
m1104 -91 c5 -66 -43 -108 -68 -61 -11 20 -12 20 -40 3 -68 -40 -44 29 26 76
63 41 78 38 82 -18z m-147 8 c-13 -11 -26 -17 -29 -14 -7 6 29 34 43 34 6 0
-1 -9 -14 -20z m-81 -3 c0 -3 -4 -8 -10 -11 -5 -3 -10 -1 -10 4 0 6 5 11 10
11 6 0 10 -2 10 -4z m360 -10 c0 -17 -79 -78 -92 -70 -27 17 7 64 57 77 33 8
35 8 35 -7z m910 -5 l135 -17 -27 -18 c-25 -16 -45 -17 -233 -10 -113 4 -205
10 -205 14 0 9 31 36 50 43 29 11 147 6 280 -12z m480 -6 c0 -8 -7 -15 -15
-15 -16 0 -20 12 -8 23 11 12 23 8 23 -8z m-240 -20 c0 -8 -7 -15 -15 -15 -16
0 -20 12 -8 23 11 12 23 8 23 -8z m553 4 c-13 -13 -182 -24 -219 -14 l-29 8
30 7 c50 12 231 12 218 -1z m-2713 -24 c0 -16 -9 -19 -34 -9 -25 9 -19 24 9
24 16 0 25 -6 25 -15z m1110 -4 c0 -5 -12 -19 -27 -31 -32 -25 -45 -10 -17 21
18 20 44 26 44 10z m-610 -31 c-18 -11 -24 -6 -16 16 5 14 9 15 19 5 9 -9 9
-14 -3 -21z m484 -11 c-18 -20 -54 -26 -54 -9 0 6 15 19 33 30 36 22 49 10 21
-21z m-719 -25 c132 -27 205 -50 205 -66 0 -31 -299 43 -356 88 -19 15 -19 15
1 10 11 -3 79 -17 150 -32z m945 16 c-23 -18 -50 -26 -50 -15 0 6 53 34 65 34
6 0 -1 -8 -15 -19z m-70 2 c0 -5 -9 -17 -19 -26 -14 -13 -21 -14 -27 -5 -4 7
1 18 11 26 21 15 35 17 35 5z m127 -28 c-37 -34 -62 -38 -50 -8 6 17 51 43 73
43 9 0 0 -14 -23 -35z m228 -164 c-3 -5 -13 -10 -21 -10 -8 0 -14 5 -14 10 0
6 9 10 21 10 11 0 17 -4 14 -10z"/>
<path d="M1739 3670 c-15 -50 -6 -62 48 -64 34 -1 38 2 41 26 2 19 -5 36 -22
53 -36 36 -53 32 -67 -15z"/>
<path d="M1899 3661 c-27 -27 -42 -70 -19 -56 6 3 10 12 10 19 0 7 18 20 41
29 23 9 38 21 34 27 -11 18 -36 11 -66 -19z"/>
<path d="M1347 3586 c-52 -14 -97 -46 -64 -46 9 0 35 7 58 17 33 13 48 14 71
5 31 -11 108 4 111 23 3 15 -121 16 -176 1z"/>
<path d="M1240 3519 c0 -5 5 -7 10 -4 6 3 10 8 10 11 0 2 -4 4 -10 4 -5 0 -10
-5 -10 -11z"/>
<path d="M1113 3484 c-8 -22 22 -44 58 -44 38 0 47 19 19 42 -28 22 -69 23
-77 2z"/>
<path d="M1030 3480 c-13 -8 -13 -10 2 -10 9 0 20 5 23 10 8 13 -5 13 -25 0z"/>
<path d="M1027 3422 c-21 -23 -22 -42 -2 -42 9 0 38 -11 65 -25 58 -29 70 -31
70 -9 0 23 -74 94 -97 94 -11 0 -27 -8 -36 -18z"/>
<path d="M1928 3173 c-11 -26 -23 -74 -25 -107 -5 -52 -2 -65 16 -86 l21 -25
24 29 c24 29 56 123 56 162 -1 18 -1 18 -14 1 -7 -9 -16 -35 -20 -57 -6 -38
-20 -58 -29 -43 -2 5 2 35 9 68 22 104 -2 140 -38 58z"/>
<path d="M1336 2995 c4 -11 9 -38 12 -60 5 -49 12 -57 69 -90 50 -30 68 -26
35 7 -19 20 -20 23 -5 34 15 10 11 15 -31 41 -26 17 -57 43 -68 59 -11 16 -17
20 -12 9z"/>
<path d="M1452 2988 c-14 -14 2 -38 24 -38 15 0 17 10 8 34 -7 19 -16 20 -32
4z"/>
<path d="M1300 2820 c8 -5 21 -10 28 -10 7 0 37 -11 65 -24 29 -13 63 -26 77
-30 l25 -7 -23 20 c-28 25 -124 61 -160 61 -21 0 -24 -2 -12 -10z"/>
<path d="M1876 2800 c3 -14 10 -29 15 -34 14 -16 10 6 -7 34 l-15 25 7 -25z"/>
<path d="M1240 2798 c0 -24 51 -77 81 -83 17 -4 51 -16 76 -27 98 -43 60 11
-59 85 -62 37 -98 47 -98 25z"/>
<path d="M1160 2752 c0 -19 98 -101 128 -107 70 -15 18 46 -85 99 -36 18 -43
19 -43 8z"/>
<path d="M1159 2677 c31 -51 23 -62 -22 -31 -21 14 -41 24 -44 21 -7 -7 87
-112 115 -128 19 -11 25 -10 39 4 35 35 11 107 -41 123 -11 3 -32 16 -45 28
l-24 21 22 -38z"/>
<path d="M1296 2581 c-4 -5 -2 -12 3 -15 5 -4 12 -2 15 3 4 5 2 12 -3 15 -5 4
-12 2 -15 -3z"/>
<path d="M1350 2584 c0 -15 27 -50 34 -43 4 3 -2 17 -13 30 -11 13 -20 19 -21
13z"/>
<path d="M1722 2540 c0 -19 2 -27 5 -17 2 9 2 25 0 35 -3 9 -5 1 -5 -18z"/>
<path d="M1830 2549 c-7 -13 -11 -54 -8 -103 3 -69 7 -88 33 -128 17 -27 36
-47 45 -45 8 1 21 20 28 42 11 34 11 40 -3 48 -12 7 -16 21 -15 55 4 67 2 72
-20 72 -14 0 -21 9 -26 35 -8 44 -20 52 -34 24z"/>
<path d="M1993 2535 c0 -22 2 -30 4 -17 2 12 2 30 0 40 -3 9 -5 -1 -4 -23z"/>
<path d="M2036 2549 c-8 -26 -12 -88 -5 -83 10 6 23 84 15 91 -3 3 -8 0 -10
-8z"/>
<path d="M1440 2514 c0 -37 34 -153 60 -204 10 -19 28 -44 40 -55 21 -19 23
-19 35 -2 14 20 36 22 54 5 11 -11 12 -9 6 10 -5 17 -2 27 11 37 16 12 17 16
5 39 -22 40 -148 172 -157 163 -4 -4 1 -24 10 -45 27 -55 46 -112 38 -112 -9
0 -61 93 -83 150 -17 43 -18 44 -19 14z"/>
<path d="M1307 2457 c-7 -20 1 -47 14 -47 11 0 11 17 0 44 -7 18 -8 18 -14 3z"/>
<path d="M1404 2406 c-6 -17 11 -46 28 -46 14 0 5 53 -9 58 -7 2 -16 -4 -19
-12z"/>
<path d="M1610 1981 c0 -6 5 -13 10 -16 6 -3 10 1 10 9 0 9 -4 16 -10 16 -5 0
-10 -4 -10 -9z"/>
<path d="M1795 1960 c3 -5 8 -10 11 -10 2 0 4 5 4 10 0 6 -5 10 -11 10 -5 0
-7 -4 -4 -10z"/>
<path d="M2166 1922 c-10 -16 20 -102 36 -102 15 0 3 80 -15 97 -8 9 -17 11
-21 5z"/>
<path d="M2253 1654 c-3 -8 -1 -20 6 -27 8 -8 11 -4 11 16 0 30 -7 35 -17 11z"/>
<path d="M2400 1479 c0 -22 25 -52 40 -47 9 3 5 13 -13 33 -18 21 -26 25 -27
14z"/>
<path d="M2530 1292 c0 -44 77 -158 96 -140 9 10 -32 89 -65 128 -28 33 -30
33 -31 12z"/>
<path d="M10240 4443 c-8 -3 -60 -33 -115 -66 -55 -33 -147 -80 -205 -104
-111 -46 -133 -63 -128 -103 2 -20 18 -33 85 -66 46 -22 94 -51 108 -64 56
-53 56 -44 53 -1056 -3 -906 -3 -930 -23 -969 -11 -22 -31 -45 -45 -52 -14 -6
-47 -22 -75 -35 -58 -28 -76 -61 -56 -104 l12 -27 162 8 c89 4 266 9 394 11
128 1 237 5 243 9 5 3 10 22 10 40 0 45 -28 63 -117 76 -100 14 -137 26 -161
52 -34 36 -41 76 -43 229 -1 124 1 143 18 166 26 37 139 112 167 112 28 0 39
-13 100 -113 103 -168 354 -489 443 -567 l37 -33 115 8 c64 4 173 10 243 14
142 8 168 19 168 73 0 56 -12 64 -102 72 -125 10 -203 51 -328 175 -135 134
-349 411 -414 538 -26 52 -21 66 57 135 210 187 360 264 561 284 78 8 106 27
106 72 0 57 -17 62 -220 62 -101 0 -280 5 -398 11 -154 8 -217 8 -225 0 -6 -6
-11 -27 -11 -47 0 -43 19 -60 77 -69 23 -4 61 -15 85 -25 34 -15 42 -24 42
-45 0 -32 -40 -73 -238 -237 -189 -159 -229 -188 -257 -188 -17 0 -24 7 -29
31 -3 17 -6 420 -6 895 l0 863 -26 20 c-27 21 -38 24 -64 14z"/>
<path d="M6045 4426 c-17 -6 -80 -39 -140 -73 -61 -34 -146 -76 -190 -93 -44
-17 -90 -42 -103 -57 -37 -41 -26 -63 48 -101 93 -48 125 -75 151 -129 l24
-48 0 -952 c0 -1095 12 -983 -107 -1040 -72 -35 -93 -60 -84 -99 9 -36 39 -42
161 -33 61 5 226 8 367 8 283 -2 288 -1 288 56 0 43 -14 53 -104 70 -125 24
-173 53 -204 124 -15 32 -17 154 -19 1190 -2 792 -6 1157 -13 1166 -16 19 -42
23 -75 11z"/>
<path d="M3609 4216 c-21 -45 -2 -74 76 -118 84 -47 119 -79 148 -133 l22 -40
0 -915 0 -915 -24 -53 c-29 -64 -78 -109 -128 -117 -93 -16 -122 -49 -88 -101
l17 -26 96 9 c107 9 442 11 653 3 124 -5 139 -3 158 14 11 11 21 29 21 41 0
43 -21 55 -137 75 -130 22 -194 47 -220 86 -17 26 -18 61 -21 453 -2 234 -1
435 2 447 3 12 13 24 21 28 8 3 112 1 230 -4 248 -10 270 -16 317 -89 16 -25
40 -83 54 -128 25 -81 35 -93 79 -93 52 0 55 14 55 248 0 142 6 263 17 350 18
145 18 144 -34 158 -62 17 -82 -9 -104 -131 -16 -91 -43 -121 -120 -129 -126
-14 -472 -25 -490 -15 -10 5 -21 20 -24 32 -3 12 -5 212 -3 444 3 390 4 424
21 440 16 16 42 18 221 21 111 2 260 -1 330 -7 203 -16 254 -49 332 -217 32
-71 63 -104 96 -104 37 0 46 26 52 147 4 65 13 169 22 232 8 62 12 116 8 120
-3 3 -90 4 -192 1 -307 -8 -1250 -6 -1354 4 l-97 8 -12 -26z"/>
<path d="M8831 3265 c-277 -61 -417 -285 -335 -538 34 -105 162 -203 420 -321
157 -71 234 -117 272 -161 79 -89 57 -216 -46 -266 -36 -18 -69 -24 -142 -27
-203 -8 -346 58 -449 208 -20 30 -49 62 -64 70 -25 14 -28 13 -49 -8 -22 -22
-23 -29 -21 -164 2 -77 5 -149 9 -160 24 -76 494 -138 708 -93 150 32 275 120
331 232 24 48 30 74 33 149 7 150 -38 256 -143 337 -48 36 -86 56 -416 215
-157 76 -191 103 -210 174 -25 95 30 176 136 198 86 18 189 9 258 -23 78 -36
119 -70 183 -154 59 -78 71 -83 134 -62 38 14 38 5 -5 209 -19 90 -31 130 -46
142 -57 49 -406 76 -558 43z"/>
<path d="M7270 3247 c-207 -57 -417 -177 -457 -261 -20 -42 -11 -95 21 -132
18 -22 34 -28 78 -32 105 -8 177 37 248 157 68 113 91 131 165 131 117 0 200
-59 230 -165 12 -41 16 -86 13 -171 -3 -115 -3 -116 -33 -140 -19 -15 -64 -31
-125 -45 -275 -60 -489 -145 -588 -234 -73 -66 -105 -137 -105 -228 2 -139 70
-249 191 -305 46 -21 76 -27 153 -30 117 -5 215 17 352 79 50 23 107 48 126
56 l33 14 59 -61 c33 -33 71 -65 85 -70 65 -25 172 3 303 79 83 49 122 91 114
123 -12 47 -20 50 -123 42 -114 -8 -135 -3 -156 37 -13 26 -15 91 -14 477 2
493 1 506 -60 589 -22 29 -52 53 -98 75 -64 32 -72 33 -197 35 -111 3 -143 0
-215 -20z m284 -783 c23 -22 23 -341 1 -383 -40 -79 -303 -131 -410 -82 -76
35 -105 85 -105 182 0 71 14 103 71 154 64 58 166 99 344 138 44 10 84 6 99
-9z"/>
<path d="M7113 1467 c-48 -23 -52 -31 -23 -47 19 -10 20 -21 20 -214 l0 -204
30 -12 c52 -22 131 -17 173 9 82 51 101 166 37 224 -29 26 -38 28 -89 25 -31
-2 -64 -8 -73 -12 -17 -8 -18 1 -18 117 0 69 -3 128 -7 130 -5 3 -27 -5 -50
-16z m156 -258 c38 -13 61 -54 61 -107 0 -53 -25 -82 -76 -89 -64 -8 -84 17
-84 107 0 75 -1 74 66 100 1 0 15 -5 33 -11z"/>
<path d="M7858 1467 c-27 -11 -48 -23 -48 -27 0 -4 11 -15 25 -24 23 -15 25
-23 25 -91 l0 -74 -53 6 c-95 10 -164 -43 -174 -131 -7 -56 17 -110 59 -136
41 -25 71 -25 124 -1 l42 19 11 -25 c6 -13 14 -22 19 -20 4 2 24 12 45 22 44
21 47 32 10 37 l-28 3 0 227 c0 124 -2 228 -5 231 -3 2 -26 -5 -52 -16z m-52
-247 c5 0 20 -9 32 -20 19 -18 22 -32 22 -90 0 -78 -10 -90 -73 -90 -65 0
-112 79 -90 153 10 35 47 60 78 52 11 -2 25 -5 31 -5z"/>
<path d="M9083 1466 c-48 -23 -53 -35 -23 -54 19 -11 20 -23 20 -207 0 -165
-2 -197 -15 -201 -8 -4 -15 -13 -15 -21 0 -12 7 -14 31 -9 17 3 51 6 75 6 51
0 57 11 14 27 l-30 11 0 231 c0 126 -3 232 -7 234 -5 2 -27 -5 -50 -17z"/>
<path d="M11368 1280 c-42 -44 -46 -55 -23 -64 12 -4 15 -25 15 -101 0 -88 2
-98 25 -120 26 -27 55 -31 104 -14 45 16 38 27 -16 31 l-48 3 -3 103 -3 102
39 0 c38 0 69 19 55 33 -3 4 -26 7 -50 7 -41 0 -43 1 -43 30 0 17 -3 30 -7 30
-5 0 -25 -18 -45 -40z"/>
<path d="M9630 1253 l-35 -15 25 -20 c25 -20 25 -22 28 -198 3 -173 3 -179
-19 -199 -12 -11 -21 -22 -18 -24 9 -6 159 5 159 12 0 4 -15 14 -32 22 -32 14
-33 16 -36 82 l-3 68 50 -7 c40 -5 56 -2 89 16 101 57 111 216 17 256 -45 18
-67 18 -111 -3 -36 -18 -37 -18 -52 5 -17 25 -16 25 -62 5z m196 -56 c23 -20
28 -34 32 -84 4 -52 1 -64 -17 -82 -24 -24 -75 -28 -116 -9 -23 10 -25 16 -25
80 0 60 3 72 25 93 30 31 66 32 101 2z"/>
<path d="M6384 1248 c-3 -4 5 -12 16 -18 39 -21 42 -55 13 -115 -15 -30 -30
-55 -33 -55 -8 0 -70 128 -70 146 0 8 7 17 15 20 35 14 10 24 -55 24 -65 0
-90 -10 -56 -23 8 -3 44 -62 81 -131 38 -69 72 -123 77 -120 5 3 24 37 43 75
20 38 39 69 43 69 4 -1 22 -34 41 -75 19 -41 38 -75 43 -75 4 0 36 56 70 125
36 72 70 128 80 131 39 12 14 24 -49 24 -68 0 -68 0 -44 -19 21 -16 23 -21 12
-52 -7 -19 -23 -54 -36 -79 l-23 -45 -31 68 c-35 77 -38 102 -16 111 8 3 15 9
15 14 0 10 -130 10 -136 0z"/>
<path d="M6845 1248 c-61 -33 -93 -99 -80 -164 8 -47 50 -92 94 -104 46 -12
128 9 156 40 25 28 13 35 -26 14 -54 -27 -107 -24 -135 9 -44 51 -43 52 138
103 40 11 39 30 -2 73 -35 36 -46 41 -82 41 -24 0 -52 -6 -63 -12z m76 -28
c11 -6 19 -21 19 -35 0 -21 -8 -27 -52 -40 -68 -20 -67 -20 -58 20 14 61 44
80 91 55z"/>
<path d="M8095 1250 c-66 -27 -101 -117 -75 -194 27 -83 145 -106 232 -45 35
25 27 44 -10 25 -45 -22 -84 -28 -112 -16 -25 10 -50 46 -50 70 0 5 39 21 88
35 48 15 91 31 96 35 13 12 -29 75 -59 88 -30 14 -81 15 -110 2z m79 -36 c32
-32 17 -53 -50 -72 -57 -16 -57 -16 -50 20 12 61 64 88 100 52z"/>
<path d="M8782 1239 c-43 -28 -62 -67 -62 -126 0 -54 25 -104 62 -124 52 -28
198 5 198 45 0 11 -12 9 -55 -6 -47 -18 -59 -19 -86 -8 -19 8 -37 26 -45 44
l-13 31 96 30 c53 17 98 36 100 42 2 6 -14 30 -35 52 -34 36 -44 41 -83 41
-27 0 -56 -8 -77 -21z m100 -26 c10 -9 18 -22 18 -30 0 -14 -41 -35 -93 -48
-23 -6 -27 -4 -27 15 0 65 59 102 102 63z"/>
<path d="M9345 1245 c-72 -25 -111 -97 -95 -171 29 -127 222 -135 286 -12 33
64 5 150 -60 179 -49 22 -77 23 -131 4z m94 -35 c27 -14 54 -88 46 -128 -9
-47 -37 -72 -83 -72 -55 0 -84 34 -90 102 -3 43 0 58 18 81 23 29 73 37 109
17z"/>
<path d="M10023 1240 c-38 -23 -42 -36 -13 -45 18 -6 20 -15 20 -100 0 -86 -2
-94 -21 -100 -12 -4 -17 -11 -13 -15 12 -11 154 0 154 11 0 5 -8 9 -18 9 -33
0 -42 21 -42 101 0 69 3 80 22 93 12 9 39 16 60 16 54 0 68 -26 68 -121 0 -68
-2 -78 -22 -92 -13 -8 -20 -18 -17 -21 9 -10 149 6 143 15 -3 5 -14 9 -24 9
-25 0 -33 43 -25 125 8 74 19 85 84 85 57 0 71 -24 71 -123 0 -70 -2 -79 -20
-84 -45 -12 -15 -23 62 -23 49 0 78 4 72 9 -5 5 -18 11 -29 13 -16 3 -20 12
-22 53 -6 117 -15 157 -38 181 -30 30 -91 32 -149 6 -38 -17 -41 -17 -58 0
-24 24 -81 23 -136 -2 -44 -20 -44 -20 -49 0 -7 25 -19 25 -60 0z"/>
<path d="M10669 1237 c-103 -69 -84 -226 31 -257 45 -12 127 9 155 40 25 28
13 35 -26 14 -54 -27 -107 -24 -135 9 -13 16 -24 34 -24 42 0 9 32 24 88 40
112 35 117 39 89 77 -45 61 -118 75 -178 35z m92 -17 c11 -6 19 -21 19 -35 0
-20 -8 -26 -54 -39 -70 -21 -69 -21 -61 17 13 59 50 81 96 57z"/>
<path d="M10957 1236 l-38 -23 25 -17 c24 -15 26 -21 26 -101 0 -75 -2 -85
-22 -99 -12 -9 -19 -18 -16 -21 3 -3 41 -2 84 3 77 9 78 9 47 21 l-33 13 0 87
c0 84 1 88 25 99 14 7 41 12 60 12 50 0 65 -28 65 -122 0 -70 -2 -79 -22 -90
-21 -11 -15 -13 52 -20 81 -7 111 3 61 20 -30 11 -31 12 -31 79 -1 168 -51
216 -169 163 -53 -24 -51 -24 -51 0 0 25 -15 24 -63 -4z"/>
<path d="M8320 1241 c0 -5 6 -11 14 -14 7 -3 34 -43 59 -89 73 -131 102 -171
115 -156 6 7 36 63 67 123 31 61 66 118 78 127 22 17 21 18 -40 18 -59 0 -81
-11 -48 -24 8 -3 15 -10 15 -16 0 -18 -62 -150 -71 -150 -11 0 -67 96 -76 129
-4 18 0 28 18 42 24 19 24 19 -53 19 -43 0 -78 -4 -78 -9z"/>
<path d="M11612 1048 c-18 -18 -14 -53 8 -73 27 -24 25 -51 -5 -79 -23 -21
-33 -46 -19 -46 20 0 64 46 78 80 21 54 20 86 -4 110 -23 23 -41 25 -58 8z"/>
<path d="M7743 809 c-24 -11 -43 -24 -43 -28 0 -5 11 -16 25 -25 24 -16 26
-21 23 -88 l-3 -72 -60 2 c-46 2 -68 -2 -93 -18 -98 -61 -96 -210 4 -257 34
-17 38 -17 94 4 58 21 59 21 65 2 8 -23 26 -24 65 -4 36 18 38 32 8 37 l-23 3
-3 233 c-1 127 -6 232 -10 231 -4 0 -26 -9 -49 -20z m-37 -255 l34 -16 0 -79
c0 -86 -9 -99 -67 -99 -80 1 -126 128 -68 185 28 29 54 31 101 9z"/>
<path d="M10676 757 c-23 -17 -18 -60 7 -65 39 -8 68 58 31 72 -20 8 -17 8
-38 -7z"/>
<path d="M9456 618 c-35 -37 -37 -43 -22 -53 13 -10 16 -30 16 -101 0 -51 6
-100 13 -114 17 -33 62 -45 111 -28 55 18 59 38 7 31 -63 -9 -71 4 -71 113 l0
94 44 0 c40 0 56 11 56 36 0 2 -22 4 -50 4 -49 0 -50 1 -50 30 0 17 -3 30 -7
30 -5 -1 -26 -19 -47 -42z"/>
<path d="M10393 620 c-36 -41 -41 -60 -18 -60 12 0 15 -18 15 -99 0 -124 13
-147 84 -145 42 1 76 16 76 34 0 4 -11 5 -25 2 -13 -2 -36 -1 -50 2 -25 6 -25
8 -25 106 l0 100 39 0 c37 0 68 19 54 33 -3 4 -26 7 -50 7 -41 0 -43 1 -43 30
0 40 -18 37 -57 -10z"/>
<path d="M8557 594 l-29 -16 21 -19 c20 -19 21 -30 21 -201 0 -155 -2 -184
-17 -200 -15 -17 -13 -18 65 -18 87 0 104 11 47 30 l-35 12 0 68 0 68 59 -1
c50 -1 63 2 96 27 61 47 80 120 50 192 -24 58 -104 81 -168 48 -30 -16 -32
-16 -45 5 -17 25 -27 26 -65 5z m206 -66 c11 -14 22 -48 24 -75 9 -85 -41
-121 -126 -92 -31 11 -31 11 -31 82 0 59 4 75 22 94 31 33 83 28 111 -9z"/>
<path d="M6333 580 c-53 -24 -83 -70 -83 -128 0 -88 48 -132 142 -132 91 0
158 61 158 145 0 108 -108 165 -217 115z m124 -45 c60 -68 30 -185 -48 -185
-61 0 -99 45 -99 117 0 91 89 132 147 68z"/>
<path d="M6646 578 l-40 -20 27 -20 c25 -18 27 -24 27 -98 0 -68 -3 -82 -22
-100 -12 -11 -20 -22 -17 -24 7 -7 149 6 149 14 0 4 -11 11 -24 14 -28 7 -36
30 -36 109 0 73 20 97 84 97 62 0 76 -22 76 -121 0 -68 -2 -78 -22 -92 -22
-15 -19 -16 55 -16 75 -1 102 11 53 23 -29 7 -36 30 -36 129 0 69 -3 81 -25
102 -30 31 -82 33 -142 6 -40 -19 -41 -19 -46 0 -6 24 -12 23 -61 -3z"/>
<path d="M7083 580 c-42 -25 -63 -68 -63 -125 0 -87 47 -135 131 -135 49 0
129 35 129 56 0 17 -8 17 -40 -1 -29 -17 -93 -19 -120 -5 -10 5 -23 23 -28 39
l-11 30 100 31 c66 20 99 35 99 45 0 8 -4 15 -9 15 -5 0 -13 9 -16 20 -15 48
-115 65 -172 30z m102 -26 c26 -27 14 -48 -40 -66 -66 -22 -65 -22 -65 10 0
61 65 96 105 56z"/>
<path d="M7933 582 c-38 -20 -40 -27 -13 -42 18 -9 20 -21 20 -97 0 -70 -3
-88 -17 -99 -28 -20 -11 -25 73 -22 l79 3 -37 18 -38 17 0 71 c0 97 9 111 68
107 45 -3 47 -2 50 25 5 38 -21 45 -74 19 -42 -21 -43 -21 -49 -2 -8 24 -19
24 -62 2z"/>
<path d="M8265 586 c-69 -30 -108 -112 -86 -179 19 -58 53 -81 126 -85 70 -5
118 15 148 62 45 69 22 165 -47 197 -48 22 -99 24 -141 5z m84 -27 c39 -14 61
-54 61 -114 0 -89 -80 -126 -141 -66 -25 25 -29 37 -29 83 1 55 11 76 45 96
25 14 25 14 64 1z"/>
<path d="M9190 593 c-29 -11 -70 -45 -70 -58 0 -28 32 -25 60 5 15 16 37 30
49 30 25 0 43 -32 39 -67 -2 -22 -10 -29 -48 -38 -98 -25 -137 -65 -110 -115
19 -35 57 -43 113 -25 35 12 53 13 60 6 16 -16 49 -13 75 5 22 15 21 36 -1 33
-35 -4 -37 1 -37 100 0 117 -8 131 -73 130 -23 0 -49 -3 -57 -6z m80 -183 c0
-33 -4 -42 -24 -51 -14 -7 -36 -9 -51 -5 -22 6 -26 11 -23 39 2 27 9 34 38 44
56 19 60 17 60 -27z"/>
<path d="M9923 579 c-28 -14 -43 -28 -43 -40 0 -29 44 -25 64 6 31 47 80 23
74 -36 -3 -29 -8 -33 -61 -49 -70 -22 -97 -44 -97 -80 0 -53 55 -78 120 -55
30 10 47 12 54 5 13 -13 39 -13 71 2 32 14 34 40 3 36 -22 -3 -23 0 -28 98 -3
64 -10 107 -19 118 -19 23 -87 21 -138 -5z m97 -174 c0 -43 -1 -44 -35 -51
-70 -13 -89 47 -25 78 53 27 60 24 60 -27z"/>
<path d="M10651 576 l-45 -23 27 -18 c26 -16 27 -21 27 -100 0 -74 -2 -84 -22
-98 -22 -15 -19 -16 55 -16 79 -1 95 7 52 27 -25 11 -25 13 -25 132 0 134 1
133 -69 96z"/>
<path d="M10851 578 l-33 -21 26 -20 c24 -18 26 -24 26 -102 0 -74 -2 -86 -20
-95 -36 -19 -21 -25 60 -22 44 2 80 8 80 13 0 5 -9 9 -19 9 -37 0 -51 27 -51
96 0 81 10 100 58 114 49 13 49 13 72 -10 17 -17 20 -33 20 -104 0 -75 -2 -85
-22 -99 -22 -15 -19 -16 55 -16 42 -1 77 3 77 8 0 5 -10 11 -22 13 -22 3 -23
8 -26 95 -3 86 -1 93 19 104 13 6 40 12 62 13 56 1 67 -19 67 -122 0 -75 -2
-84 -20 -89 -45 -12 -15 -23 60 -23 47 0 80 4 80 10 0 6 -8 10 -18 10 -34 0
-42 21 -42 107 0 87 -15 135 -45 147 -32 12 -101 6 -137 -13 -36 -18 -38 -18
-54 0 -22 25 -86 25 -141 0 -40 -19 -41 -19 -46 0 -7 25 -24 24 -66 -3z"/>
<path d="M11503 580 c-42 -25 -63 -68 -63 -125 0 -87 47 -135 131 -135 49 0
129 35 129 56 0 17 -8 17 -40 -1 -29 -17 -93 -19 -120 -5 -10 5 -23 23 -28 39
l-11 30 100 31 c54 17 99 35 99 40 0 5 -17 27 -38 50 -34 35 -44 40 -83 40
-26 0 -57 -8 -76 -20z m102 -30 c25 -27 13 -47 -35 -60 -23 -6 -48 -14 -56
-17 -20 -7 -19 46 2 75 19 28 64 29 89 2z"/>
</g>
</svg>
