<?xml version="1.0" standalone="no"?>
<!DOCTYPE svg PUBLIC "-//W3C//DTD SVG 20010904//EN"
 "http://www.w3.org/TR/2001/REC-SVG-20010904/DTD/svg10.dtd">
<svg version="1.0" xmlns="http://www.w3.org/2000/svg"
 width="1200.000000pt" height="719.000000pt" viewBox="0 0 1200.000000 719.000000"
 preserveAspectRatio="xMidYMid meet">

<g transform="translate(0.000000,719.000000) scale(0.100000,-0.100000)"
fill="white" stroke="none">
<path d="M8393 6192 c-554 -704 -846 -1085 -1254 -1639 -292 -398 -534 -723
-538 -723 -3 0 -244 331 -535 735 l-530 735 -118 0 c-92 0 -117 -3 -112 -12 5
-7 264 -367 576 -800 312 -433 572 -795 579 -806 10 -16 -66 -125 -615 -875
-344 -472 -626 -860 -626 -862 0 -3 54 -5 119 -5 l119 0 555 763 c305 419 563
772 573 784 l19 22 565 -781 c310 -429 569 -782 575 -785 6 -2 63 -2 126 -1
l115 3 -613 845 c-338 465 -618 853 -624 862 -7 14 217 343 1174 1726 1226
1770 1200 1732 1195 1732 -2 0 -328 -413 -725 -918z"/>
<path d="M10 3620 l0 -1680 105 0 105 0 1 958 c1 526 5 1222 8 1547 l6 589
1059 -1539 1060 -1540 699 -930 c385 -511 706 -937 715 -945 17 -17 -222 338
-2116 3160 l-1379 2055 -132 3 -131 3 0 -1681z"/>
<path d="M2840 3620 l0 -1680 1140 0 1140 0 0 90 0 90 -1040 0 -1040 0 2 738
3 737 963 3 962 2 0 85 0 85 -962 2 -963 3 -3 673 -2 672 1030 0 1031 0 -3 88
-3 87 -1127 3 -1128 2 0 -1680z"/>
<path d="M8080 5210 l0 -90 590 0 590 0 0 -1590 0 -1590 105 0 105 0 0 1590 0
1590 590 0 590 0 0 90 0 90 -1285 0 -1285 0 0 -90z"/>
<path d="M11596 2904 c-93 -34 -145 -105 -146 -197 0 -58 22 -108 61 -142 28
-23 68 -37 235 -84 86 -25 124 -56 124 -103 0 -70 -58 -110 -156 -110 -80 -1
-132 24 -159 74 -19 36 -22 38 -72 38 -63 0 -66 -10 -28 -87 24 -48 68 -87
120 -107 81 -31 220 -24 295 14 130 66 157 251 48 334 -35 26 -118 56 -210 76
-120 27 -167 78 -134 147 20 42 66 63 138 63 66 0 117 -25 137 -67 15 -30 19
-33 69 -33 46 0 52 2 52 20 0 61 -68 136 -149 165 -54 19 -173 18 -225 -1z"/>
<path d="M11170 2638 c0 -240 -2 -277 -18 -308 -22 -45 -56 -62 -112 -56 -48
4 -90 40 -90 77 0 16 -7 19 -55 19 -55 0 -55 0 -55 -30 0 -46 35 -107 78 -135
129 -84 315 -30 352 103 6 21 10 156 10 320 l0 282 -55 0 -55 0 0 -272z"/>
<path d="M10580 2300 c-40 -40 -16 -112 41 -125 38 -9 82 31 82 75 0 62 -79
94 -123 50z"/>
</g>
</svg>
