<?xml version="1.0"?>
<svg fill="#0078d7" xmlns="http://www.w3.org/2000/svg" viewBox="0 0 512 512" height="4rem"><g id="Outline"><path d="M309.989,227.827c29.6-18.925,54.1-43.444,70.859-70.91,16.326-26.758,25.2-55.46,26.472-85.417H408A23.527,23.527,0,0,0,431.5,48V24a7.5,7.5,0,0,0-7.5-7.5H88A7.5,7.5,0,0,0,80.5,24V48A23.527,23.527,0,0,0,104,71.5h.677c1.27,29.957,10.148,58.659,26.475,85.417,16.758,27.466,41.26,51.985,70.859,70.91a33.46,33.46,0,0,1,0,56.346c-29.6,18.925-54.1,43.444-70.859,70.91-16.328,26.761-25.207,55.465-26.474,85.425A24.524,24.524,0,0,0,80.5,465v23a7.5,7.5,0,0,0,7.5,7.5H424a7.5,7.5,0,0,0,7.5-7.5V464A23.527,23.527,0,0,0,408,440.5h-.677c-1.271-29.957-10.148-58.659-26.475-85.417-16.758-27.466-41.261-51.985-70.859-70.91a33.46,33.46,0,0,1,0-56.346ZM95.5,48V31.5h321V48a8.51,8.51,0,0,1-8.5,8.5H104A8.51,8.51,0,0,1,95.5,48Zm321,416v16.5H95.5V465a9.511,9.511,0,0,1,9.5-9.5H408A8.51,8.51,0,0,1,416.5,464ZM156.326,440.5c9.833-15.6,34.228-30.213,69.191-41.093,13.416-4.175,23.818-10.142,30.483-17.343,6.664,7.2,17.067,13.168,30.483,17.343,34.963,10.88,59.358,25.493,69.191,41.093ZM279.58,256a48.221,48.221,0,0,0,22.328,40.812C357.044,332.062,389.639,384.1,392.3,440.5H372.437c-8.976-22.222-37.552-41.741-81.5-55.415-14.954-4.654-25.352-11.915-27.814-19.422a7.5,7.5,0,0,0-14.253,0c-2.462,7.507-12.859,14.768-27.813,19.422-43.946,13.675-72.528,33.193-81.5,55.415H119.7c2.663-56.4,35.258-108.438,90.393-143.688a48.462,48.462,0,0,0,0-81.624C154.956,179.938,122.361,127.9,119.7,71.5H392.3c-2.662,56.4-35.251,108.438-90.387,143.688A48.221,48.221,0,0,0,279.58,256Z"/><path d="M358.318,124.12a7.5,7.5,0,0,0-6.418-3.62H160.1a7.5,7.5,0,0,0-6.641,10.986c14.123,26.9,36.873,50.892,65.791,69.383a65.309,65.309,0,0,1,29.344,44.671,7.5,7.5,0,0,0,14.812,0,65.313,65.313,0,0,1,29.344-44.672c28.917-18.49,51.667-42.482,65.79-69.382A7.5,7.5,0,0,0,358.318,124.12ZM284.67,188.23A80.5,80.5,0,0,0,256,220.106a80.489,80.489,0,0,0-28.67-31.875c-22.679-14.5-41.2-32.563-54.18-52.731h165.7C325.87,155.668,307.349,173.729,284.67,188.23Z"/><path d="M256,264.5a7.5,7.5,0,0,0-7.5,7.5v7.987a7.5,7.5,0,1,0,15,0V272A7.5,7.5,0,0,0,256,264.5Z"/><path d="M256,304.5a7.5,7.5,0,0,0-7.5,7.5v7.987a7.5,7.5,0,1,0,15,0V312A7.5,7.5,0,0,0,256,304.5Z"/></g></svg>
