<svg fill="#0078d7" xmlns="http://www.w3.org/2000/svg" id="Capa_1" enable-background="new 0 0 512 512" height="512" viewBox="0 0 512 512" width="512"><g><path d="m401.555 190.705-51.545 14.5-65.751-100.205h107.926l-42-52.5 42-52.5h-151.209v86.936l-129.286 228.581-38.537-8.774-73.147 205.257h511.987zm-19.158 36.553 14.109 41.046-39.961 45.371-57.913-9.163-44.427 56.186-88.971-78.91 92.193-162.998 79.557 121.244zm-111.421-197.258h58.791l-18 22.5 18 22.5h-58.791zm-178.507 311.909 34.338 7.817 23.323-41.235 107.918 95.714 53.23-67.319 56.874 8.999 39.576-44.932 62.23 181.047h-427.413z"/></g></svg>