<?xml version="1.0" encoding="utf-8"?>
<svg width="700pt" height="700pt" version="1.1" viewBox="0 0 560 560" xmlns="http://www.w3.org/2000/svg">
  <defs>
    <symbol id="v" overflow="visible">
      <path d="m3.7188-0.21875c-0.1875 0.09375-0.38672 0.16797-0.59375 0.21875-0.21094 0.050781-0.42969 0.078125-0.65625 0.078125-0.66797 0-1.1992-0.1875-1.5938-0.5625-0.39844-0.375-0.59375-0.89062-0.59375-1.5469 0-0.64453 0.19531-1.1562 0.59375-1.5312 0.39453-0.375 0.92578-0.5625 1.5938-0.5625 0.22656 0 0.44531 0.027344 0.65625 0.078125 0.20703 0.054687 0.40625 0.125 0.59375 0.21875v0.84375c-0.1875-0.13281-0.375-0.23438-0.5625-0.29688s-0.38672-0.09375-0.59375-0.09375c-0.375 0-0.67188 0.12109-0.89062 0.35938-0.21094 0.24219-0.3125 0.57031-0.3125 0.98438 0 0.42969 0.10156 0.76172 0.3125 1 0.21875 0.24219 0.51562 0.35938 0.89062 0.35938 0.20703 0 0.40625-0.03125 0.59375-0.09375s0.375-0.16016 0.5625-0.29688z"/>
    </symbol>
    <symbol id="d" overflow="visible">
      <path d="m2.7344-2.2188c-0.09375-0.03125-0.18359-0.054688-0.26562-0.078125-0.085938-0.019531-0.16797-0.03125-0.25-0.03125-0.25 0-0.44531 0.085937-0.57812 0.25-0.13672 0.15625-0.20312 0.38281-0.20312 0.67188v1.4062h-0.96875v-3.0469h0.96875v0.5c0.125-0.19531 0.26562-0.33594 0.42188-0.42188 0.16406-0.09375 0.36328-0.14062 0.59375-0.14062h0.09375c0.039063 0 0.097656 0.007813 0.17188 0.015625z"/>
    </symbol>
    <symbol id="b" overflow="visible">
      <path d="m3.5-1.5312v0.28125h-2.2656c0.019531 0.23047 0.097656 0.40234 0.23438 0.51562 0.14453 0.11719 0.34375 0.17188 0.59375 0.17188 0.20703 0 0.41406-0.03125 0.625-0.09375 0.21875-0.0625 0.44141-0.15625 0.67188-0.28125v0.75c-0.23047 0.09375-0.46094 0.16406-0.6875 0.20312-0.23047 0.039062-0.46094 0.0625-0.6875 0.0625-0.55469 0-0.98438-0.14062-1.2969-0.42188-0.30469-0.28125-0.45312-0.67188-0.45312-1.1719s0.14844-0.89062 0.45312-1.1719c0.30078-0.28125 0.71094-0.42188 1.2344-0.42188 0.47656 0 0.85938 0.14844 1.1406 0.4375 0.28906 0.28125 0.4375 0.66406 0.4375 1.1406zm-1-0.32812c0-0.17578-0.054688-0.32031-0.15625-0.4375-0.10547-0.11328-0.24609-0.17188-0.42188-0.17188-0.1875 0-0.34375 0.054688-0.46875 0.15625-0.11719 0.10547-0.1875 0.25781-0.21875 0.45312z"/>
    </symbol>
    <symbol id="l" overflow="visible">
      <path d="m1.8281-1.375c-0.19922 0-0.35156 0.039062-0.45312 0.10938-0.10547 0.074219-0.15625 0.17188-0.15625 0.29688s0.039062 0.22656 0.125 0.29688c0.082031 0.074219 0.19531 0.10938 0.34375 0.10938 0.1875 0 0.33594-0.066406 0.45312-0.20312 0.125-0.13281 0.1875-0.29688 0.1875-0.48438v-0.125zm1.4844-0.35938v1.7344h-0.98438v-0.45312c-0.125 0.1875-0.27344 0.32422-0.4375 0.40625-0.15625 0.082031-0.35547 0.125-0.59375 0.125-0.3125 0-0.57031-0.085938-0.76562-0.26562-0.19922-0.1875-0.29688-0.42578-0.29688-0.71875 0-0.36328 0.11719-0.62891 0.35938-0.79688 0.25-0.16406 0.64062-0.25 1.1719-0.25h0.5625v-0.078125c0-0.14453-0.0625-0.25391-0.1875-0.32812-0.11719-0.070313-0.29688-0.10938-0.54688-0.10938-0.21094 0-0.40625 0.023438-0.59375 0.0625-0.17969 0.042969-0.34375 0.10547-0.5 0.1875v-0.73438c0.20703-0.050781 0.41406-0.085937 0.625-0.10938 0.21875-0.03125 0.42969-0.046875 0.64062-0.046875 0.53906 0 0.92969 0.10938 1.1719 0.32812 0.25 0.21094 0.375 0.55859 0.375 1.0469z"/>
    </symbol>
    <symbol id="a" overflow="visible">
      <path d="m1.5312-3.9062v0.85938h1v0.70312h-1v1.2812c0 0.14844 0.023438 0.24609 0.078125 0.29688 0.0625 0.042969 0.17578 0.0625 0.34375 0.0625h0.5v0.70312h-0.84375c-0.38672 0-0.65625-0.078125-0.8125-0.23438-0.15625-0.16406-0.23438-0.44141-0.23438-0.82812v-1.2812h-0.48438v-0.70312h0.48438v-0.85938z"/>
    </symbol>
    <symbol id="f" overflow="visible">
      <path d="m2.5312-2.5938v-1.625h0.98438v4.2188h-0.98438v-0.4375c-0.13672 0.17969-0.28125 0.30859-0.4375 0.39062-0.15625 0.082031-0.34375 0.125-0.5625 0.125-0.375 0-0.68359-0.14453-0.92188-0.4375-0.24219-0.30078-0.35938-0.6875-0.35938-1.1562s0.11719-0.84766 0.35938-1.1406c0.23828-0.30078 0.54688-0.45312 0.92188-0.45312 0.20703 0 0.39062 0.042969 0.54688 0.125 0.16406 0.085937 0.31641 0.21484 0.45312 0.39062zm-0.64062 1.9688c0.20703 0 0.36328-0.070312 0.46875-0.21875 0.11328-0.15625 0.17188-0.37891 0.17188-0.67188 0-0.28906-0.058594-0.50781-0.17188-0.65625-0.10547-0.15625-0.26172-0.23438-0.46875-0.23438-0.19922 0-0.35547 0.078125-0.46875 0.23438-0.11719 0.14844-0.17188 0.36719-0.17188 0.65625 0 0.29297 0.054688 0.51562 0.17188 0.67188 0.11328 0.14844 0.26953 0.21875 0.46875 0.21875z"/>
    </symbol>
    <symbol id="k" overflow="visible">
      <path d="m2.0938-0.625c0.19531 0 0.35156-0.070312 0.46875-0.21875 0.11328-0.15625 0.17188-0.37891 0.17188-0.67188 0-0.28906-0.058594-0.50781-0.17188-0.65625-0.11719-0.15625-0.27344-0.23438-0.46875-0.23438-0.21094 0-0.37109 0.078125-0.48438 0.23438-0.11719 0.14844-0.17188 0.36719-0.17188 0.65625 0 0.28125 0.054688 0.5 0.17188 0.65625 0.11328 0.15625 0.27344 0.23438 0.48438 0.23438zm-0.65625-1.9688c0.13281-0.17578 0.28125-0.30469 0.4375-0.39062 0.16406-0.082031 0.35938-0.125 0.57812-0.125 0.375 0 0.67969 0.15234 0.92188 0.45312 0.23828 0.29297 0.35938 0.67188 0.35938 1.1406s-0.12109 0.85547-0.35938 1.1562c-0.24219 0.29297-0.54688 0.4375-0.92188 0.4375-0.21875 0-0.41406-0.042969-0.57812-0.125-0.15625-0.082031-0.30469-0.21094-0.4375-0.39062v0.4375h-0.96875v-4.2188h0.96875z"/>
    </symbol>
    <symbol id="e" overflow="visible">
      <path d="m0.0625-3.0469h0.98438l0.8125 2.0625 0.6875-2.0625h0.98438l-1.2812 3.3281c-0.13672 0.34375-0.28906 0.58203-0.45312 0.71875-0.16797 0.13281-0.39062 0.20312-0.67188 0.20312h-0.5625v-0.64062h0.29688c0.16406 0 0.28516-0.027344 0.35938-0.078125 0.070312-0.054687 0.12891-0.14844 0.17188-0.28125l0.03125-0.09375z"/>
    </symbol>
    <symbol id="j" overflow="visible">
      <path d="m2.9688-0.73438h-1.625l-0.26562 0.73438h-1.0469l1.5-4.0625h1.25l1.5 4.0625h-1.0469zm-1.375-0.75h1.1094l-0.54688-1.625z"/>
    </symbol>
    <symbol id="i" overflow="visible">
      <path d="m3.2812-2.5312c0.125-0.1875 0.26953-0.32812 0.4375-0.42188 0.17578-0.10156 0.36328-0.15625 0.5625-0.15625 0.35156 0 0.61719 0.10938 0.79688 0.32812 0.1875 0.21094 0.28125 0.51562 0.28125 0.92188v1.8594h-0.98438v-1.5938-0.0625c0.007812-0.03125 0.015625-0.066406 0.015625-0.10938 0-0.21875-0.039063-0.375-0.10938-0.46875-0.0625-0.09375-0.16406-0.14062-0.29688-0.14062-0.1875 0-0.33594 0.078125-0.4375 0.23438-0.09375 0.14844-0.14844 0.35938-0.15625 0.64062v1.5h-0.96875v-1.5938c0-0.33203-0.03125-0.54688-0.09375-0.64062-0.054687-0.09375-0.15234-0.14062-0.29688-0.14062-0.1875 0-0.33594 0.078125-0.4375 0.23438-0.10547 0.14844-0.15625 0.35938-0.15625 0.64062v1.5h-0.96875v-3.0469h0.96875v0.45312c0.125-0.17578 0.25781-0.30469 0.40625-0.39062 0.15625-0.082031 0.32812-0.125 0.51562-0.125 0.20703 0 0.39062 0.054687 0.54688 0.15625 0.16406 0.09375 0.28906 0.23438 0.375 0.42188z"/>
    </symbol>
    <symbol id="h" overflow="visible">
      <path d="m3.5312-1.8594v1.8594h-0.98438v-1.4062c0-0.26953-0.007813-0.45312-0.015625-0.54688-0.011719-0.10156-0.03125-0.17969-0.0625-0.23438-0.042969-0.0625-0.09375-0.10938-0.15625-0.14062s-0.13672-0.046875-0.21875-0.046875c-0.21094 0-0.37109 0.078125-0.48438 0.23438-0.11719 0.15625-0.17188 0.37109-0.17188 0.64062v1.5h-0.96875v-4.2188h0.96875v1.625c0.14453-0.17578 0.30078-0.30469 0.46875-0.39062 0.16406-0.082031 0.34766-0.125 0.54688-0.125 0.35156 0 0.61719 0.10938 0.79688 0.32812 0.1875 0.21094 0.28125 0.51562 0.28125 0.92188z"/>
    </symbol>
    <symbol id="u" overflow="visible">
      <path d="m2.8438-2.9531v0.75c-0.21094-0.09375-0.41406-0.16016-0.60938-0.20312-0.1875-0.039062-0.37109-0.0625-0.54688-0.0625-0.17969 0-0.3125 0.027344-0.40625 0.078125-0.09375 0.042969-0.14062 0.10938-0.14062 0.20312 0 0.085938 0.03125 0.14844 0.09375 0.1875 0.070313 0.042969 0.19531 0.070312 0.375 0.078125l0.17188 0.03125c0.5 0.0625 0.83203 0.16797 1 0.3125 0.17578 0.14844 0.26562 0.375 0.26562 0.6875 0 0.32422-0.12109 0.57031-0.35938 0.73438-0.24219 0.15625-0.59375 0.23438-1.0625 0.23438-0.21094 0-0.42188-0.015625-0.64062-0.046875-0.21094-0.03125-0.42969-0.078125-0.65625-0.14062v-0.73438c0.19531 0.09375 0.39453 0.16797 0.59375 0.21875 0.20703 0.042969 0.41406 0.0625 0.625 0.0625 0.19531 0 0.34375-0.023438 0.4375-0.078125 0.09375-0.050781 0.14062-0.12891 0.14062-0.23438 0-0.09375-0.039062-0.16016-0.10938-0.20312-0.0625-0.039063-0.19531-0.070313-0.39062-0.09375l-0.17188-0.015625c-0.42969-0.0625-0.73047-0.16406-0.90625-0.3125-0.17969-0.14453-0.26562-0.36719-0.26562-0.67188 0-0.3125 0.10938-0.54688 0.32812-0.70312 0.22656-0.15625 0.57031-0.23438 1.0312-0.23438 0.17578 0 0.36328 0.015625 0.5625 0.046875 0.19531 0.023438 0.41016 0.058594 0.64062 0.10938z"/>
    </symbol>
    <symbol id="t" overflow="visible">
      <path d="m3.3281-3.9219v0.85938c-0.21875-0.10156-0.4375-0.17969-0.65625-0.23438-0.21094-0.050781-0.40625-0.078125-0.59375-0.078125-0.25 0-0.4375 0.039062-0.5625 0.10938-0.11719 0.0625-0.17188 0.16797-0.17188 0.3125 0 0.11719 0.039062 0.20312 0.125 0.26562 0.082031 0.054688 0.22656 0.10547 0.4375 0.15625l0.45312 0.078125c0.44531 0.09375 0.76562 0.23438 0.95312 0.42188s0.28125 0.44922 0.28125 0.78125c0 0.44922-0.13672 0.78125-0.40625 1-0.26172 0.21875-0.66406 0.32812-1.2031 0.32812-0.26172 0-0.52344-0.027344-0.78125-0.078125-0.25-0.039062-0.50781-0.11328-0.76562-0.21875v-0.875c0.25781 0.13672 0.50781 0.24219 0.75 0.3125 0.23828 0.074219 0.47266 0.10938 0.70312 0.10938 0.22656 0 0.39844-0.035156 0.51562-0.10938 0.125-0.082031 0.1875-0.19531 0.1875-0.34375 0-0.125-0.042969-0.21875-0.125-0.28125-0.085938-0.070312-0.25-0.13281-0.5-0.1875l-0.40625-0.09375c-0.39844-0.082031-0.6875-0.21875-0.875-0.40625-0.1875-0.19531-0.28125-0.45703-0.28125-0.78125 0-0.40625 0.12891-0.71094 0.39062-0.92188 0.25781-0.21875 0.63281-0.32812 1.125-0.32812 0.21875 0 0.44141 0.015625 0.67188 0.046875 0.23828 0.03125 0.48438 0.085937 0.73438 0.15625z"/>
    </symbol>
    <symbol id="g" overflow="visible">
      <path d="m0.4375-1.1875v-1.8594h0.96875v0.3125 0.625 0.48438c0 0.25 0.003906 0.43359 0.015625 0.54688 0.007813 0.10547 0.03125 0.17969 0.0625 0.21875 0.039063 0.0625 0.09375 0.11719 0.15625 0.15625 0.070313 0.03125 0.14844 0.046875 0.23438 0.046875 0.19531 0 0.35156-0.078125 0.46875-0.23438 0.11328-0.15625 0.17188-0.375 0.17188-0.65625v-1.5h0.98438v3.0469h-0.98438v-0.4375c-0.14844 0.17969-0.30469 0.30859-0.46875 0.39062-0.15625 0.082031-0.33594 0.125-0.53125 0.125-0.35547 0-0.625-0.10156-0.8125-0.3125-0.17969-0.21875-0.26562-0.53516-0.26562-0.95312z"/>
    </symbol>
    <symbol id="s" overflow="visible">
      <path d="m0.46875-3.0469h0.96875v3.0469h-0.96875zm0-1.1719h0.96875v0.78125h-0.96875z"/>
    </symbol>
    <symbol id="c" overflow="visible">
      <path d="m1.9219-2.4219c-0.21875 0-0.38672 0.078125-0.5 0.23438-0.11719 0.15625-0.17188 0.38281-0.17188 0.67188 0 0.29297 0.054688 0.51562 0.17188 0.67188 0.11328 0.15625 0.28125 0.23438 0.5 0.23438 0.20703 0 0.36328-0.078125 0.46875-0.23438 0.11328-0.15625 0.17188-0.37891 0.17188-0.67188 0-0.28906-0.058594-0.51562-0.17188-0.67188-0.10547-0.15625-0.26172-0.23438-0.46875-0.23438zm0-0.6875c0.51953 0 0.92578 0.14062 1.2188 0.42188 0.28906 0.28125 0.4375 0.67188 0.4375 1.1719s-0.14844 0.89062-0.4375 1.1719c-0.29297 0.28125-0.69922 0.42188-1.2188 0.42188-0.53125 0-0.94922-0.14062-1.25-0.42188-0.29297-0.28125-0.4375-0.67188-0.4375-1.1719s0.14453-0.89062 0.4375-1.1719c0.30078-0.28125 0.71875-0.42188 1.25-0.42188z"/>
    </symbol>
    <symbol id="r" overflow="visible">
      <path d="m2.4688-4.2188v0.625h-0.53125c-0.14844 0-0.24609 0.027344-0.29688 0.078125-0.054687 0.054687-0.078125 0.14062-0.078125 0.26562v0.20312h0.82812v0.70312h-0.82812v2.3438h-0.96875v-2.3438h-0.48438v-0.70312h0.48438v-0.20312c0-0.33203 0.085938-0.57812 0.26562-0.73438 0.1875-0.15625 0.47266-0.23438 0.85938-0.23438z"/>
    </symbol>
    <symbol id="q" overflow="visible">
      <path d="m0.51562-4.0625h1.1562l1.4844 2.7812v-2.7812h0.98438v4.0625h-1.1562l-1.4844-2.7812v2.7812h-0.98438z"/>
    </symbol>
    <symbol id="p" overflow="visible">
      <path d="m3.5312-1.8594v1.8594h-0.98438v-1.4219c0-0.25781-0.007813-0.4375-0.015625-0.53125-0.011719-0.10156-0.03125-0.17969-0.0625-0.23438-0.042969-0.0625-0.09375-0.10938-0.15625-0.14062s-0.13672-0.046875-0.21875-0.046875c-0.21094 0-0.37109 0.078125-0.48438 0.23438-0.11719 0.15625-0.17188 0.37109-0.17188 0.64062v1.5h-0.96875v-3.0469h0.96875v0.45312c0.14453-0.17578 0.30078-0.30469 0.46875-0.39062 0.16406-0.082031 0.34766-0.125 0.54688-0.125 0.35156 0 0.61719 0.10938 0.79688 0.32812 0.1875 0.21094 0.28125 0.51562 0.28125 0.92188z"/>
    </symbol>
    <symbol id="o" overflow="visible">
      <path d="m0.51562-4.0625h1.7344c0.50781 0 0.89844 0.11719 1.1719 0.34375 0.28125 0.23047 0.42188 0.55859 0.42188 0.98438 0 0.42969-0.14062 0.75781-0.42188 0.98438-0.27344 0.23047-0.66406 0.34375-1.1719 0.34375h-0.6875v1.4062h-1.0469zm1.0469 0.76562v1.125h0.57812c0.19531 0 0.34766-0.046875 0.45312-0.14062 0.11328-0.09375 0.17188-0.23438 0.17188-0.42188 0-0.17578-0.058594-0.3125-0.17188-0.40625-0.10547-0.10156-0.25781-0.15625-0.45312-0.15625z"/>
    </symbol>
    <symbol id="n" overflow="visible">
      <path d="m0.46875-3.0469h0.96875v3c0 0.40625-0.10156 0.71094-0.29688 0.92188-0.1875 0.21875-0.46875 0.32812-0.84375 0.32812h-0.48438v-0.64062h0.17188c0.1875 0 0.3125-0.042969 0.375-0.125 0.070313-0.085938 0.10938-0.24609 0.10938-0.48438zm0-1.1719h0.96875v0.78125h-0.96875z"/>
    </symbol>
    <symbol id="m" overflow="visible">
      <path d="m2.9219-2.9531v0.79688c-0.125-0.09375-0.25781-0.16016-0.39062-0.20312-0.13672-0.039063-0.27734-0.0625-0.42188-0.0625-0.27344 0-0.48438 0.085937-0.64062 0.25-0.14844 0.15625-0.21875 0.375-0.21875 0.65625s0.070312 0.50781 0.21875 0.67188c0.15625 0.15625 0.36719 0.23438 0.64062 0.23438 0.15625 0 0.30078-0.019531 0.4375-0.0625 0.13281-0.050781 0.25781-0.125 0.375-0.21875v0.79688c-0.14844 0.0625-0.29688 0.10156-0.45312 0.125-0.15625 0.03125-0.32031 0.046875-0.48438 0.046875-0.54297 0-0.96875-0.14062-1.2812-0.42188s-0.46875-0.67188-0.46875-1.1719 0.15625-0.89062 0.46875-1.1719 0.73828-0.42188 1.2812-0.42188c0.16406 0 0.32031 0.015625 0.46875 0.046875 0.15625 0.023438 0.3125 0.058594 0.46875 0.10938z"/>
    </symbol>
  </defs>
  <g transform="matrix(1, 0, 0, 1, -69.988068, 0.000128)">
    <path d="m629.89 391.27c-0.625-6.5547-3.7773-12.461-8.875-16.633l-98.75-80.797c20.395-35.723 12.07-72.391-8.4336-87.898-13.219-9.9961-32.16-12.355-47.129-5.8672-16.945 7.3398-29.434 26.918-32.586 51.086-2.9336 22.484 3.043 42.605 15.59 52.516 7.4922 5.9141 16.688 7.8555 25.43 7.8906l-31.703 25.363c-4.5781 3.6602-10.922 4.332-16.164 1.7109l-23.684-11.84c-1.9453-0.97266-3.9727-1.6367-6.0352-2.0547 2.8984-4.5703 4.2148-9.9297 3.6914-15.406-0.62891-6.5547-3.7812-12.461-8.8789-16.633l-98.738-80.789c13.238-23.188 14.367-46.762 7.9297-64.703 19.656-10.473 35.539-27.328 44.988-47.852 10.121-21.992 24.266-40.355 42.039-54.582 11.98-9.5859 25.555-17.234 40.344-22.73 1.6953-0.63281 2.8438-2.2266 2.8945-4.0391 0.050781-1.8086-1-3.4727-2.6562-4.1992-27.137-11.895-53.32-16.141-77.812-12.609-14.562 2.0977-25.133 6.3242-35.355 10.41-11.555 4.6172-22.469 8.9805-37.891 9.2305-11.613 0.19922-23.41-1.9844-35.078-6.4453-20.242-7.7461-40.918-11.156-61.453-10.137l-21.91 1.082-21.316 1.0586c-2.4492 0.12109-4.3398 2.207-4.2188 4.6602l11.402 229.99c-8.2031 1.2852-15.402 6.707-18.75 14.52-2.6562 6.1914-2.625 13.285 0.082032 19.453 2.707 6.1719 7.9023 10.996 14.258 13.238l6.875 2.4258 8.2852 167.08-80.531-24.996c-2.3438-0.72656-4.8359 0.58203-5.5625 2.9297-0.72656 2.3438 0.58203 4.8359 2.9297 5.5625l383.27 118.74c1.8945 0 3.6523-1.2227 4.2422-3.1289 0.72656-2.3438-0.58203-4.8359-2.9297-5.5625l-2.7227-0.84375 4.7109-30.633c1.2383-8.0469 7.1641-14.43 15.098-16.262l36.758-8.4844c7.2812-1.6797 14.695 2.3477 17.25 9.3711l19.133 52.617c0.88672 2.1992 2.8164 3.043 5.6953 2.6562 2.3086-0.83984 3.4961-3.3906 2.6562-5.6953l-19.133-52.617c-4.0859-11.234-15.949-17.684-27.602-14.992l-36.758 8.4844c-11.5 2.6523-20.09 11.906-21.887 23.57l-4.5117 29.32-29.016-9.0039 3.8125-34.316c1.9922-17.941 15.102-32.938 32.613-37.316l9.1328-2.2852c15.426-3.8555 26.383-17.113 27.266-32.992l4.043-72.762c0.09375-1.6797-0.76953-3.2695-2.2305-4.1055-1.4609-0.83594-3.2695-0.77344-4.6719 0.16016l-26.637 17.758c-12.133 8.0898-27.379 9.4883-40.785 3.7461l-33.109-14.191c-7.6445-3.2773-11.203-12.164-7.9375-19.809l0.16016-0.375c1.6484-3.8555 4.7227-6.7773 8.6602-8.2188 3.9375-1.4453 8.1719-1.207 11.922 0.66797l23.684 11.84c8.332 4.1641 18.414 3.0977 25.691-2.7227l43.598-34.879c1.6094-1.2852 2.1211-3.5078 1.2422-5.3672-0.87891-1.8594-2.9219-2.875-4.9336-2.4531-10.09 2.1211-24.121 3.0703-33.676-4.4727-9.9531-7.8594-14.777-25.281-12.285-44.387 2.1562-16.527 10.461-36.781 27.305-44.082 11.934-5.1719 27.656-3.1953 38.234 4.8008 17.965 13.586 24.465 47.023 4.2461 79.469-1.1836 1.8984-0.77344 4.375 0.95703 5.7891l101.72 83.223c3.2461 2.6562 5.2539 6.4219 5.6523 10.598 0.39844 4.1758-0.85938 8.25-3.5469 11.477l-0.26562 0.32031c-2.7578 3.3086-6.6445 5.293-10.945 5.582-4.3047 0.29297-8.4141-1.1562-11.59-4.0664l-48.527-44.484c-1.8086-1.6562-4.6211-1.5352-6.2773 0.27344-1.6602 1.8086-1.5352 4.6211 0.27344 6.2812l14.566 13.352v63.613c0 11.027 2.0078 21.84 5.9688 32.133l30.984 80.562c0.67969 1.7656 2.3633 2.8516 4.1484 2.8516 3.1016-0.46484 5.0273-2.293 4.1484-6.043l-30.984-80.562c-3.5664-9.2695-5.375-19.008-5.375-28.941v-55.465l25.074 22.984c4.9844 4.5703 11.441 6.832 18.195 6.3828 6.7461-0.45313 12.848-3.5625 17.18-8.7617l0.26562-0.32031c4.2031-5.0664 6.1797-11.461 5.5547-18.016zm-447.88-378.13c19.293-0.95312 38.75 2.2617 57.836 9.5625 12.73 4.8711 25.672 7.2383 38.395 7.0312 17.059-0.27344 28.711-4.9297 41.047-9.8633 9.7383-3.8945 19.812-7.918 33.324-9.8672 19.848-2.8594 40.992-0.19531 62.992 7.9258-11.754 5.3203-22.68 11.992-32.582 19.922-18.863 15.098-33.855 34.547-44.562 57.805-8.5469 18.57-22.855 33.852-40.551 43.434-3.332-6.0898-7.6562-11.227-12.727-15.059-13.219-9.9961-32.16-12.355-47.129-5.8672-12.801 5.5469-23.055 18.078-28.664 34.297l-37.895 1.8789-6.957-140.33zm39.051 208.62c7.4922 5.9141 16.684 7.8555 25.43 7.8906l-31.008 24.809c-5.2148 4.1719-12.328 5.2773-18.562 2.8789l-20.711-7.9648-4.2695-86.16 34.91-1.7305c-0.5625 2.5273-1.0273 5.1172-1.3711 7.7656-2.9414 22.484 3.0352 42.605 15.582 52.512zm-76.988 58.121c-4.1016-1.4492-7.3242-4.4414-9.0742-8.4258-1.7461-3.9844-1.7656-8.3828-0.050781-12.383 2.0039-4.6797 6.1836-8.0039 11.023-9.0664l1.543 31.086zm21.238 180.69-22.09-445.51 12.438-0.61328 11.809 238.18v0.003906l10.504 211.87zm13.484-159.01 8.5547 3.0195c16.539 5.8398 35.129 3.5156 49.723-6.2148l19.164-12.777-3.5508 63.887c-0.66406 11.965-8.9219 21.953-20.547 24.863l-8.9102 2.2266c-19.676 4.918-34.715 20.699-38.73 40.047zm45.93 177.45 6.3242-41.094c1.2383-8.0469 7.1641-14.43 15.098-16.262l36.758-8.4844c7.2773-1.6797 14.695 2.3477 17.25 9.3711l31.211 85.828c0.56641 1.5586 1.2852 3.0156 2.1055 4.3906zm158.58-108.34 33.109 14.191c16.176 6.9297 34.574 5.2422 49.215-4.5195l19.242-12.828-3.5508 63.887c-0.66406 11.965-8.9219 21.953-20.547 24.863l-9.1328 2.2852c-21.102 5.2734-36.891 23.344-39.293 44.957l-3.625 32.617-43.277-13.43c4.5938-2.082 8.4922-5.5156 11.168-9.9805 4.0039-6.6875 4.6953-14.695 1.8984-21.969l-38.176-99.254c-3.5664-9.2695-5.375-19.008-5.375-28.941v-55.465l25.086 22.992c3.4766 3.1875 7.6719 5.2461 12.184 6.0508-0.50391 0.86719-0.98047 1.7617-1.3789 2.7031l-0.16016 0.375c-5.1914 12.141 0.46875 26.258 12.613 31.465zm5.5391-48.992-0.26562 0.32031c-2.7539 3.3086-6.6406 5.293-10.938 5.582-4.2969 0.28906-8.4141-1.1523-11.586-4.0625l-48.539-44.492c-1.8086-1.6602-4.6211-1.5352-6.2812 0.27344-1.6602 1.8086-1.5352 4.6211 0.27344 6.2812l14.566 13.352v63.613c0 11.031 2.0078 21.84 5.9688 32.133l38.176 99.254c1.8086 4.707 1.3633 9.8828-1.2266 14.211-2.5898 4.3242-6.9453 7.1641-11.949 7.7891-7.5859 0.94922-14.707-3.4062-17.32-10.594l-31.211-85.828c-4.0859-11.238-15.953-17.688-27.602-14.992l-36.758 8.4844c-11.5 2.6562-20.09 11.906-21.887 23.57l-6.1211 39.781-28.957-8.9883c0.082031-12.797 1.9766-23.918 3.5391-32.973 0.74609-4.3086 1.4492-8.3828 1.8398-12 1.9414-17.828 15.129-32.777 32.816-37.199l8.9102-2.2266c15.426-3.8555 26.383-17.113 27.266-32.992l4.043-72.762c0.09375-1.6797-0.76953-3.2695-2.2305-4.1055-1.4609-0.83594-3.2695-0.77344-4.6719 0.16016l-26.559 17.707c-12.277 8.1875-27.918 10.141-41.832 5.2305l-11.988-4.2305-1.6289-32.887 17.039 6.5547c9.1719 3.5273 19.637 1.9062 27.309-4.2344l42.906-34.324c1.6055-1.2852 2.1211-3.5078 1.2422-5.3672-0.87891-1.8594-2.9219-2.875-4.9336-2.4492-10.09 2.1211-24.121 3.0703-33.676-4.4727-9.9531-7.8594-14.777-25.281-12.285-44.387 2.1562-16.527 10.461-36.781 27.305-44.082 11.934-5.1719 27.66-3.1953 38.234 4.8008 17.965 13.586 24.465 47.023 4.2461 79.469-1.1836 1.8984-0.77344 4.375 0.95703 5.7891l101.71 83.215c3.25 2.6562 5.2578 6.4219 5.6562 10.602 0.39062 4.1719-0.86719 8.25-3.5547 11.477z" fill="#0078d7"/>
  </g>
</svg>