<?xml version="1.0" standalone="no"?>
<!DOCTYPE svg PUBLIC "-//W3C//DTD SVG 20010904//EN"
 "http://www.w3.org/TR/2001/REC-SVG-20010904/DTD/svg10.dtd">
<svg version="1.0" xmlns="http://www.w3.org/2000/svg"
 width="512.000000pt" height="512.000000pt" viewBox="0 0 512.000000 512.000000"
 preserveAspectRatio="xMidYMid meet">

<g transform="translate(0.000000,512.000000) scale(0.100000,-0.100000)"
fill="#0078d7" stroke="none">
<path d="M2508 5105 c-54 -30 -58 -52 -58 -307 0 -202 2 -238 18 -268 32 -65
104 -76 153 -24 l24 26 0 264 0 264 -25 25 c-32 31 -77 40 -112 20z"/>
<path d="M855 5057 c-26 -26 -35 -44 -35 -68 0 -30 21 -55 213 -246 203 -203
214 -213 251 -213 51 0 96 46 96 98 0 34 -15 51 -208 244 -178 180 -212 209
-244 214 -33 6 -41 3 -73 -29z"/>
<path d="M4135 5071 c-16 -10 -117 -106 -222 -213 -210 -212 -214 -219 -173
-285 20 -33 69 -51 107 -39 10 3 112 100 226 214 225 227 228 231 187 297 -30
48 -75 57 -125 26z"/>
<path d="M2189 4289 c-46 -7 -103 -31 -113 -48 -3 -5 -53 -6 -110 -4 -101 6
-106 5 -171 -25 -75 -36 -134 -92 -173 -166 -23 -45 -27 -63 -28 -150 l-1 -99
-54 -20 c-76 -28 -158 -113 -188 -192 -18 -48 -22 -76 -19 -141 l3 -82 -62
-27 c-164 -71 -248 -254 -194 -418 13 -37 27 -69 32 -72 17 -11 9 -24 -28 -42
-64 -29 -147 -120 -172 -188 -44 -116 -18 -256 65 -354 l27 -33 -168 -168
-168 -168 -40 14 c-59 21 -156 18 -224 -8 -49 -18 -79 -41 -194 -155 -110
-108 -142 -146 -163 -193 -36 -81 -42 -143 -21 -216 24 -85 46 -115 175 -247
121 -124 163 -157 199 -157 60 0 110 61 96 117 -4 17 -60 82 -142 164 -119
121 -135 141 -140 177 -9 69 3 91 115 205 136 139 186 162 257 118 17 -10 281
-267 587 -572 487 -485 558 -559 563 -591 13 -71 -1 -96 -114 -211 -58 -60
-118 -115 -133 -123 -32 -17 -91 -18 -121 -3 -12 6 -81 69 -152 139 -156 154
-186 166 -249 103 -27 -27 -34 -74 -16 -103 19 -32 267 -274 303 -296 90 -58
203 -64 307 -18 79 36 302 256 341 339 37 77 40 170 7 263 l-22 63 197 194
c118 117 208 198 224 202 30 9 85 9 346 2 l167 -4 202 -202 201 -202 -16 -51
c-10 -29 -17 -84 -17 -124 0 -110 26 -155 178 -309 160 -162 209 -191 327
-191 146 -1 121 -21 776 633 655 654 633 628 633 776 -1 120 -29 167 -196 331
-114 112 -142 134 -193 153 -72 28 -188 26 -244 -3 l-34 -18 -170 170 -170
170 36 44 c94 114 107 277 31 398 -41 67 -131 138 -194 153 -25 6 -25 8 -25
104 0 84 -4 105 -25 148 -34 70 -113 146 -180 174 l-56 23 1 91 c0 82 -3 99
-29 152 -39 79 -110 147 -183 176 l-58 22 3 81 c5 107 -21 180 -90 252 -64 68
-142 103 -243 110 -41 2 -218 32 -393 65 -347 66 -434 78 -503 68z m281 -224
c80 -15 183 -35 230 -44 l84 -17 -132 -132 c-73 -73 -136 -132 -140 -132 -19
0 -131 86 -183 141 -60 63 -119 162 -119 199 0 22 3 23 58 18 31 -3 122 -18
202 -33z m-484 -25 c21 -8 34 -23 48 -58 35 -86 89 -165 170 -246 93 -93 167
-146 251 -180 34 -14 64 -34 71 -48 28 -50 10 -131 -40 -177 -38 -35 -131 -42
-178 -13 -18 12 -139 128 -270 259 -202 204 -238 244 -248 281 -31 119 80 222
196 182z m1158 -94 c63 -26 96 -96 81 -172 -5 -29 -32 -63 -131 -164 -133
-137 -140 -151 -109 -210 18 -36 43 -50 85 -50 27 0 46 13 109 74 42 41 89 79
104 85 104 40 207 -30 207 -140 0 -57 -16 -82 -130 -194 -56 -55 -108 -113
-116 -128 -20 -38 -10 -80 28 -112 51 -43 78 -35 169 51 89 83 110 94 172 94
57 0 104 -31 127 -83 40 -86 24 -121 -111 -256 -95 -94 -112 -116 -116 -149
-4 -31 0 -44 21 -69 51 -61 97 -53 190 36 75 71 93 81 149 81 107 0 179 -117
131 -213 -9 -18 -75 -92 -147 -164 -125 -126 -132 -135 -132 -173 0 -56 39
-95 95 -95 34 0 47 7 90 50 l50 49 165 -164 165 -165 -467 -467 -468 -468
-167 167 -167 167 81 75 c96 89 115 125 94 175 -17 42 -66 70 -105 61 -15 -3
-58 -35 -95 -71 -111 -109 -115 -109 -420 -106 -278 3 -333 -4 -401 -50 -16
-12 -119 -109 -228 -217 l-197 -196 -466 466 -465 465 161 160 c88 87 162 160
164 162 2 2 32 -7 67 -19 88 -29 202 -24 274 14 102 53 166 140 188 256 l11
59 47 4 c141 14 278 151 295 295 l6 51 49 5 c77 9 143 43 202 106 57 60 97
144 97 205 0 33 1 33 52 39 70 9 144 47 200 103 69 69 91 121 96 226 3 76 1
94 -21 141 l-25 54 157 156 c86 85 165 160 176 166 28 15 89 14 129 -3z
m-1411 -350 c18 -7 125 -108 238 -222 187 -190 207 -213 214 -251 13 -81 -32
-150 -112 -172 -78 -22 -99 -8 -325 217 -220 218 -235 239 -225 315 13 98 116
154 210 113z m-266 -437 c31 -12 327 -300 348 -339 14 -26 18 -54 16 -107 -1
-44 -63 -108 -113 -117 -77 -14 -102 2 -272 172 -87 87 -164 169 -172 183 -7
13 -13 44 -14 69 0 108 104 178 207 139z m-174 -528 c31 -12 166 -147 178
-179 34 -89 -19 -191 -108 -208 -60 -11 -105 10 -186 90 -82 81 -105 127 -93
189 17 89 120 142 209 108z m3338 -898 c25 -5 63 -35 142 -112 60 -58 115
-118 123 -133 15 -28 18 -90 5 -121 -10 -26 -1110 -1126 -1143 -1143 -32 -17
-91 -18 -121 -3 -32 16 -226 209 -243 241 -17 32 -18 76 -3 114 15 41 1127
1142 1164 1153 40 12 38 12 76 4z"/>
<path d="M3393 1785 c-64 -27 -83 -100 -39 -148 31 -33 68 -43 107 -27 40 17
59 46 59 90 0 63 -70 109 -127 85z"/>
<path d="M635 786 c-34 -34 -40 -68 -20 -109 36 -75 134 -75 170 0 31 66 -12
133 -85 133 -30 0 -47 -6 -65 -24z"/>
</g>
</svg>
