<svg fill="#0078d7" id="Icons" height="4rem" viewBox="0 0 74 74" xmlns="http://www.w3.org/2000/svg"><path d="m37 41.308a.992.992 0 0 1 -.426-.1l-34-16.006a1 1 0 0 1 0-1.81l34-16.007a1 1 0 0 1 .852 0l34 16.007a1 1 0 0 1 0 1.81l-34 16.006a.992.992 0 0 1 -.426.1zm-31.652-17.008 31.652 14.9 31.652-14.9-31.652-14.9z"/><path d="m36.775 51.3c-7.7 0-15.4-2.218-23.047-6.653a1 1 0 0 1 -.5-.865v-14.2a1 1 0 0 1 2 0v13.62c14.3 8.1 28.791 8.1 43.09 0v-13.402a1 1 0 0 1 2 0v13.984a1 1 0 0 1 -.5.865c-7.642 4.434-15.344 6.651-23.043 6.651z"/><path d="m65.567 47.012a1 1 0 0 1 -1-1v-19.154a1 1 0 0 1 2 0v19.154a1 1 0 0 1 -1 1z"/><path d="m65.567 53.716a4.352 4.352 0 1 1 4.352-4.352 4.357 4.357 0 0 1 -4.352 4.352zm0-6.7a2.352 2.352 0 1 0 2.352 2.352 2.355 2.355 0 0 0 -2.352-2.356z"/><path d="m65.681 62.707a10.478 10.478 0 0 1 -4.481-1.079 1 1 0 0 1 -.557-1.084l1.629-8.939a1 1 0 1 1 1.967.359l-1.486 8.157a7.225 7.225 0 0 0 5.638.028l-1.491-8.185a1 1 0 0 1 1.968-.359l1.629 8.939a1 1 0 0 1 -.517 1.064 9.107 9.107 0 0 1 -4.299 1.099z"/></svg>